<?xml version="1.0" encoding="UTF-8" standalone="no"?>
<!-- Created with Inkscape (http://www.inkscape.org/) -->
<!-- Inspired by https://www.youtube.com/@TubbyTarchia (understatement?) -->

<svg
   width="210mm"
   height="210mm"
   viewBox="0 0 210 210"
   version="1.1"
   id="svg1"
   xml:space="preserve"
   xmlns="http://www.w3.org/2000/svg"
   xmlns:svg="http://www.w3.org/2000/svg"><defs
     id="defs1" /><g
     id="layer1"><path
       style="fill:#ffffff;fill-opacity:1;stroke:#000000;stroke-width:4.02649;stroke-dasharray:none;stroke-opacity:1"
       d="m 174.88066,148.39579 12.88323,-11.46056 c 0.29795,7.51349 -0.80133,11.84132 -7.82479,19.52245"
       id="path17" /><path
       style="display:inline;fill:#ffffff;stroke:#000000;stroke-width:4.02649;stroke-dasharray:none;stroke-opacity:1"
       d="M 189.06451,65.530633 C 175.64235,82.719302 164.74941,97.6949 155.91148,119.46779 l 24.02762,36.98989 c 0,0 3.84017,11.27721 1.89693,16.43995 -2.65453,7.0525 -16.7561,15.17534 -16.7561,15.17534 0,0 -12.44781,-11.86882 -32.41963,-12.86558 -24.74797,-1.23514 -47.250909,13.49789 -47.250909,13.49789 L 90.15168,173.52993 73.71173,182.06609 58.220242,151.0831 C 40.066111,140.55352 29.49965,138.6216 9.4486026,138.62159 L 85.409391,54.024145 148.95613,18.931169 c 0,0 21.7601,-5.672025 29.5917,-2.803726 7.83159,2.868298 14.35355,14.501384 14.35355,14.501384 l 5.76978,11.539582 -2.43135,8.854838"
       id="path6" /><path
       style="fill:none;stroke:#000000;stroke-width:4.02649;stroke-dasharray:none;stroke-opacity:1"
       d="m 192.90138,30.628827 c 0,0 -13.08116,5.972341 -18.96918,5.3746 -5.88801,-0.597741 -21.69694,-17.858713 -21.69694,-17.858713"
       id="path7" /><path
       style="display:inline;fill:#ffffff;stroke:#000000;stroke-width:4.02649;stroke-dasharray:none;stroke-opacity:1"
       d="m 194.97487,48.340601 c 0,0 3.69798,7.892566 3.15423,11.988946 -0.89678,6.755925 -10.18027,17.730839 -10.18027,17.730839 1.40348,-7.624413 1.79922,-16.112792 -0.5528,-21.240717"
       id="path11" /><path
       style="display:inline;fill:none;stroke:#000000;stroke-width:4.02649;stroke-dasharray:none;stroke-opacity:1"
       d="m 179.9391,156.45768 c -7.95805,3.73012 -14.46301,4.41488 -26.55683,3.4777 l -52.16523,-17.07226 8.66387,-51.532946 38.74166,-51.216761 25.92652,-3.052735 21.69072,13.962569"
       id="path8" /><path
       style="fill:none;stroke:#000000;stroke-width:4.02649;stroke-dasharray:none;stroke-opacity:1"
       d="m 155.91148,119.46779 c 0,0 -12.79144,0.892 -26.89399,4.04814 -9.01658,2.01787 -26.11157,9.30162 -26.11157,9.30162"
       id="path9" /><path
       style="fill:none;stroke:#000000;stroke-width:4.02649;stroke-dasharray:none;stroke-opacity:1"
       d="m 138.02394,54.124875 c 4.22368,8.950435 6.23427,16.478183 5.55757,29.933794 5.97599,-7.481556 10.29219,-14.825703 12.47432,-24.343774 l -7.43326,-19.601482"
       id="path10" /><path
       style="display:inline;fill:none;stroke:#000000;stroke-width:4.02649;stroke-dasharray:none;stroke-opacity:1"
       d="m 163.24533,37.738852 4.14078,9.685597 c 0,0 0.88712,10.587733 -2.98629,11.918289 -4.82612,1.657814 -12.06061,-9.428584 -12.06061,-9.428584"
       id="path22" /><path
       style="fill:none;fill-opacity:1;stroke:#000000;stroke-width:4.02649;stroke-linejoin:bevel;stroke-dasharray:none;stroke-opacity:1"
       d="m 189.30417,46.55869 c 0,0 2.48061,11.425299 -3.62889,11.141769 -3.45525,-0.160347 -5.60866,-8.730567 -5.60866,-8.730567"
       id="path25" /><path
       style="fill:none;stroke:#000000;stroke-width:4.02649;stroke-dasharray:none;stroke-opacity:1"
       d="m 167.38611,47.424449 c 0,0 5.27713,10.164795 8.584,10.649014 3.30686,0.484219 4.09651,-9.103571 4.09651,-9.103571 l -1.35082,-9.570334"
       id="path14" /><path
       style="display:inline;fill:none;stroke:#000000;stroke-width:4.02649;stroke-dasharray:none;stroke-opacity:1"
       d="m 142.98701,154.62597 9.94815,-21.06995 c 0,0 5.94953,7.4797 4.47107,16.31943 -0.59086,3.53284 -4.02396,10.05993 -4.02396,10.05993"
       id="path16" /><path
       style="fill:none;stroke:#000000;stroke-width:4.02649;stroke-dasharray:none;stroke-opacity:1"
       d="M 58.220237,151.0831 43.67721,136.54006 52.213338,109.03474"
       id="path18" /><path
       style="fill:#000000;stroke:#000000;stroke-width:1.18217;stroke-dasharray:none;stroke-opacity:1"
       d="m 77.637322,79.937907 c 0,0 -6.893954,9.329811 -5.703951,12.894001 0.974281,2.918054 5.491596,-0.145178 5.491596,-0.145178"
       id="path21" /><path
       style="fill:#000000;stroke:#000000;stroke-width:1.18217;stroke-dasharray:none;stroke-opacity:1"
       d="m 98.150159,76.186352 c 0,0 8.364081,-9.492772 7.174091,-13.056963 -0.97428,-2.91805 -8.767225,-0.944543 -8.767225,-0.944543"
       id="path21-1" /><path
       style="display:inline;fill:#1a1a1a;fill-opacity:1;stroke:#000000;stroke-width:1.7812;stroke-dasharray:none;stroke-opacity:1"
       d="M 78.721894,94.33334 C 75.240465,92.768886 76.584156,78.031643 80.897904,71.288785 86.174875,63.040333 93.592853,59.082256 94.890403,60.115959 96.187944,61.149661 101.36754,67.6862 97.283571,79.052555 93.810246,88.719349 82.203309,95.897774 78.721894,94.33334 Z"
       id="path20-2" /><path
       style="display:inline;fill:#ff0000;stroke:#000000;stroke-width:1.18217;stroke-dasharray:none;stroke-opacity:1"
       d="m 81.846796,89.329388 c 0,0 -1.319807,-11.630876 1.343427,-16.441735 3.25792,-5.885079 8.638745,-7.971548 8.638745,-7.971548 0,0 4.757968,5.520812 1.477494,13.510813 -2.718491,6.62121 -11.459666,10.90247 -11.459666,10.90247 z"
       id="path20" /><path
       style="fill:none;stroke:#000000;stroke-width:4.02649;stroke-linejoin:bevel;stroke-dasharray:none;stroke-opacity:1"
       d="m 107.63191,144.96251 c 0,0 4.60766,-7.49524 7.93055,-6.60458 3.58851,0.96186 3.84905,10.45975 3.84905,10.45975 0,0 4.48464,-6.40365 7.57199,-5.71744 3.64883,0.811 5.24412,9.9118 5.24412,9.9118"
       id="path23" /><path
       style="fill:none;stroke:#000000;stroke-width:4.02649;stroke-linejoin:bevel;stroke-dasharray:none;stroke-opacity:1"
       d="m 107.82014,103.58765 c 0,0 5.29434,2.99532 6.99146,1.33712 3.98144,-3.89009 -2.75547,-16.470255 -2.75547,-16.470255 0,0 7.14326,5.397828 10.10602,3.428942 5.15477,-3.425561 1.3102,-18.521275 1.3102,-18.521275"
       id="path24" /></g></svg>
